<?xml version="1.0" standalone="no"?>
<!DOCTYPE svg PUBLIC "-//W3C//DTD SVG 20010904//EN"
 "http://www.w3.org/TR/2001/REC-SVG-20010904/DTD/svg10.dtd">
<svg version="1.0" xmlns="http://www.w3.org/2000/svg"
 width="2048.000000px" height="2048.000000px" viewBox="0 0 2048.000000 2048.000000"
 preserveAspectRatio="xMidYMid meet">

<g transform="translate(0.000000,2048.000000) scale(0.100000,-0.100000)"
fill="#000000" stroke="none">
<path d="M13342 17805 c-60 -31 -95 -72 -122 -143 -11 -28 -438 -1417 -950
-3089 -1060 -3460 -960 -3137 -969 -3126 -4 4 -25 58 -46 118 -160 464 -399
842 -746 1180 -136 133 -195 180 -344 278 -374 244 -762 350 -1170 318 -270
-21 -474 -78 -715 -197 -254 -127 -442 -265 -637 -468 -296 -307 -554 -750
-680 -1163 -15 -51 -30 -93 -33 -93 -4 0 -451 1290 -994 2868 -544 1577 -1006
2912 -1027 2968 -44 114 -108 212 -163 252 -29 20 -52 27 -101 30 -56 4 -70 1
-109 -22 -119 -70 -143 -215 -152 -926 -3 -247 20 -2952 55 -6445 41 -4175 56
-6037 49 -6075 -13 -72 -3 -128 31 -182 72 -114 232 -118 351 -9 23 21 603
867 1391 2031 743 1097 1357 2001 1364 2008 10 11 18 -2 43 -75 16 -48 278
-808 582 -1688 303 -880 599 -1739 656 -1910 58 -170 116 -328 129 -350 50
-85 117 -125 210 -125 111 0 199 78 221 195 3 22 25 73 46 113 22 40 55 116
72 170 18 53 275 888 571 1855 296 966 542 1756 546 1755 5 -2 596 -923 1314
-2048 719 -1125 1323 -2062 1343 -2083 100 -103 251 -104 341 -2 44 50 81 132
90 198 10 76 -55 11549 -68 11962 -18 570 -40 1095 -56 1325 -8 118 -14 274
-12 346 2 127 1 131 -26 172 -64 97 -181 129 -285 77z m-62 -1890 c-4 -203 -3
-1361 3 -2572 6 -1211 9 -2204 6 -2206 -2 -3 -361 -7 -796 -11 -633 -6 -793
-5 -793 5 0 14 1569 5138 1577 5152 3 5 6 7 8 5 1 -2 -1 -169 -5 -373z m-7577
-2374 c466 -1350 845 -2456 843 -2458 -2 -2 -221 -6 -487 -9 -517 -6 -806 -21
-1025 -55 -75 -11 -137 -19 -139 -17 -2 2 -13 973 -24 2158 -11 1185 -23 2313
-26 2505 -4 217 -3 346 3 340 5 -5 390 -1115 855 -2464z m3615 -657 c367 -63
654 -216 943 -504 186 -185 386 -490 520 -795 60 -138 171 -457 161 -466 -6
-6 -3844 -41 -3849 -35 -1 1 8 18 21 37 14 20 70 134 126 255 56 120 129 269
162 329 298 545 733 952 1184 1108 266 92 486 114 732 71z m-4257 -2238 c236
-31 430 -38 1036 -34 392 2 605 0 612 -7 5 -5 173 -482 372 -1060 284 -826
360 -1054 353 -1072 -12 -31 -2467 -3652 -2476 -3653 -5 0 -8 107 -9 238 0
130 -13 1443 -28 2917 -15 1474 -25 2684 -23 2688 2 5 14 6 26 3 11 -3 73 -12
137 -20z m8234 12 c2 -7 8 -958 14 -2113 6 -1155 14 -2509 17 -3010 6 -816 5
-908 -9 -895 -20 19 -2429 3790 -2434 3810 -4 15 648 2160 665 2190 8 13 80
16 523 20 1094 11 1219 11 1224 -2z m-2235 -19 c0 -17 -501 -1653 -509 -1661
-3 -4 -222 331 -486 745 -264 413 -508 787 -542 829 -35 43 -63 81 -63 83 0 5
324 8 1148 13 335 1 452 -1 452 -9z m-2347 -287 c-727 -1074 -938 -1381 -944
-1375 -9 11 -559 1611 -559 1628 0 17 95 19 1098 23 l593 2 -188 -278z m1058
-1029 c315 -494 579 -908 587 -920 12 -20 -36 -185 -549 -1858 -309 -1009
-566 -1832 -570 -1828 -9 11 -1273 3674 -1273 3693 0 17 1212 1810 1224 1810
4 0 265 -404 581 -897z"/>
</g>
</svg>
